{
    "asset" : {
        "generator" : "Khronos glTF Blender I/O v1.7.33",
        "version" : "2.0"
    },
    "scene" : 0,
    "scenes" : [
        {
            "name" : "Scene",
            "nodes" : [
                0
            ]
        }
    ],
    "nodes" : [
        {
            "mesh" : 0,
            "name" : "Cube.007",
            "translation" : [
                0,
                1.1558849811553955,
                -0.04693567752838135
            ]
        }
    ],
    "materials" : [
        {
            "doubleSided" : true,
            "name" : "Material",
            "pbrMetallicRoughness" : {
                "baseColorFactor" : [
                    0.8000000715255737,
                    0.12951840460300446,
                    0,
                    1
                ],
                "metallicFactor" : 0,
                "roughnessFactor" : 0.7563636302947998
            }
        },
        {
            "doubleSided" : true,
            "name" : "\u041c\u0430\u0442\u0435\u0440\u0438\u0430\u043b",
            "pbrMetallicRoughness" : {
                "baseColorFactor" : [
                    0,
                    0,
                    0,
                    1
                ],
                "metallicFactor" : 0,
                "roughnessFactor" : 0.7472727298736572
            }
        }
    ],
    "meshes" : [
        {
            "name" : "Cube.012",
            "primitives" : [
                {
                    "attributes" : {
                        "POSITION" : 0,
                        "NORMAL" : 1,
                        "TEXCOORD_0" : 2
                    },
                    "indices" : 3,
                    "material" : 0
                },
                {
                    "attributes" : {
                        "POSITION" : 4,
                        "NORMAL" : 5,
                        "TEXCOORD_0" : 6
                    },
                    "indices" : 7,
                    "material" : 1
                }
            ]
        }
    ],
    "accessors" : [
        {
            "bufferView" : 0,
            "componentType" : 5126,
            "count" : 1750,
            "max" : [
                0.6393797397613525,
                0.7366445660591125,
                0.5553734302520752
            ],
            "min" : [
                -0.6393797397613525,
                -0.7366445064544678,
                -0.7233860492706299
            ],
            "type" : "VEC3"
        },
        {
            "bufferView" : 1,
            "componentType" : 5126,
            "count" : 1750,
            "type" : "VEC3"
        },
        {
            "bufferView" : 2,
            "componentType" : 5126,
            "count" : 1750,
            "type" : "VEC2"
        },
        {
            "bufferView" : 3,
            "componentType" : 5123,
            "count" : 3486,
            "type" : "SCALAR"
        },
        {
            "bufferView" : 4,
            "componentType" : 5126,
            "count" : 7372,
            "max" : [
                0.4576617181301117,
                0.5313388705253601,
                0.7233860492706299
            ],
            "min" : [
                -0.42064690589904785,
                -0.697706937789917,
                -0.5811586380004883
            ],
            "type" : "VEC3"
        },
        {
            "bufferView" : 5,
            "componentType" : 5126,
            "count" : 7372,
            "type" : "VEC3"
        },
        {
            "bufferView" : 6,
            "componentType" : 5126,
            "count" : 7372,
            "type" : "VEC2"
        },
        {
            "bufferView" : 7,
            "componentType" : 5123,
            "count" : 11442,
            "type" : "SCALAR"
        }
    ],
    "bufferViews" : [
        {
            "buffer" : 0,
            "byteLength" : 21000,
            "byteOffset" : 0
        },
        {
            "buffer" : 0,
            "byteLength" : 21000,
            "byteOffset" : 21000
        },
        {
            "buffer" : 0,
            "byteLength" : 14000,
            "byteOffset" : 42000
        },
        {
            "buffer" : 0,
            "byteLength" : 6972,
            "byteOffset" : 56000
        },
        {
            "buffer" : 0,
            "byteLength" : 88464,
            "byteOffset" : 62972
        },
        {
            "buffer" : 0,
            "byteLength" : 88464,
            "byteOffset" : 151436
        },
        {
            "buffer" : 0,
            "byteLength" : 58976,
            "byteOffset" : 239900
        },
        {
            "buffer" : 0,
            "byteLength" : 22884,
            "byteOffset" : 298876
        }
    ],
    "buffers" : [
        {
            "byteLength" : 321760,
            "uri" : "data:application/octet-stream;base64,"
        }
    ]
}
